<svg width="20" height="20" viewBox="0 0 20 20" fill="none" xmlns="http://www.w3.org/2000/svg">
<path d="M2.55202 12.661L2.85638 10.9349C3.21612 8.89463 3.39598 7.87456 4.10827 7.27059C4.82056 6.66663 5.84374 6.66663 7.8901 6.66663H12.1112C14.1576 6.66663 15.1807 6.66663 15.8931 7.27059C16.6053 7.87456 16.7852 8.89463 17.1449 10.9349L17.4493 12.661C17.9471 15.4842 18.196 16.8958 17.4296 17.8229C16.6632 18.75 15.2472 18.75 12.4156 18.75H7.58573C4.75403 18.75 3.33818 18.75 2.57176 17.8229C1.80533 16.8958 2.05423 15.4842 2.55202 12.661Z" stroke="#0D0C0C" stroke-width="1.5"/>
<path d="M6.25 6.66663L6.38985 4.98844C6.54632 3.11084 8.11589 1.66663 10 1.66663C11.8841 1.66663 13.4537 3.11084 13.6102 4.98844L13.75 6.66663" stroke="#0D0C0C" stroke-width="1.5"/>
<path d="M12.5 9.16663C12.3917 10.3442 11.3047 11.25 10 11.25C8.69525 11.25 7.60835 10.3442 7.5 9.16663" stroke="#0D0C0C" stroke-width="1.5" stroke-linecap="round"/>
</svg>
