<svg width="20" height="20" viewBox="0 0 20 20" fill="none" xmlns="http://www.w3.org/2000/svg">
<g clip-path="url(#clip0_3112_550)">
<path d="M9.99935 18.3333C14.6017 18.3333 18.3327 14.6023 18.3327 9.99996C18.3327 5.39759 14.6017 1.66663 9.99935 1.66663C5.39698 1.66663 1.66602 5.39759 1.66602 9.99996C1.66602 14.6023 5.39698 18.3333 9.99935 18.3333Z" stroke="#0D0C0C" stroke-width="1.5"/>
<path d="M6.25 14.1667C8.19308 12.1315 11.786 12.0357 13.75 14.1667M12.0792 7.91671C12.0792 9.06729 11.1452 10 9.99292 10C8.84075 10 7.90664 9.06729 7.90664 7.91671C7.90664 6.76612 8.84075 5.83337 9.99292 5.83337C11.1452 5.83337 12.0792 6.76612 12.0792 7.91671Z" stroke="#0D0C0C" stroke-width="1.5" stroke-linecap="round"/>
</g>
<defs>
<clipPath id="clip0_3112_550">
<rect width="20" height="20" fill="white"/>
</clipPath>
</defs>
</svg>
