<svg width="24" height="24" viewBox="0 0 24 24" fill="none" xmlns="http://www.w3.org/2000/svg">
<g clip-path="url(#clip0_3161_1742)">
<path d="M19.8617 10.125C19.8311 9.03933 19.7284 8.34702 19.3806 7.75656C18.8854 6.91602 17.9943 6.44813 16.213 5.514L14.5568 4.64447C13.1026 3.88177 12.3755 3.5 11.5938 3.5C10.812 3.5 10.0849 3.88094 8.63072 4.64447L6.97447 5.514C5.19317 6.44813 4.30211 6.91602 3.80689 7.75656C3.3125 8.59628 3.3125 9.6422 3.3125 11.7316V11.8285C3.3125 13.9195 3.3125 14.9654 3.80689 15.8051C4.30211 16.6457 5.19317 17.1135 6.97447 18.0485L8.63072 18.9172C10.0849 19.6807 10.812 20.0625 11.5938 20.0625C12.3755 20.0625 13.1026 19.6816 14.5568 18.918L16.213 18.0485C17.9943 17.1135 18.8854 16.6465 19.3806 15.8059C19.7284 15.2155 19.8311 14.5232 19.8617 13.4375M19.0469 8.05469L15.7344 9.71094M15.7344 9.71094L15.3203 9.91797L11.5938 11.7812M15.7344 9.71094V12.6094M15.7344 9.71094L7.86719 5.57031M11.5938 11.7812L4.14062 8.05469M11.5938 11.7812V19.6484" stroke="black" stroke-width="1.24219" stroke-linecap="round"/>
</g>
<defs>
<clipPath id="clip0_3161_1742">
<rect width="23.1875" height="23.1875" fill="white" transform="translate(0 0.1875)"/>
</clipPath>
</defs>
</svg>
