<svg width="40" height="40" viewBox="0 0 40 40" fill="none" xmlns="http://www.w3.org/2000/svg">
<g opacity="1">
<path d="M36.6141 10.8625C36.4668 10.2865 36.1848 9.75373 35.7911 9.30818C35.3974 8.86264 34.9035 8.51707 34.35 8.30001C28.9937 6.23126 20.4688 6.25001 20 6.25001C19.5312 6.25001 11.0062 6.23126 5.65 8.30001C5.0965 8.51707 4.60255 8.86264 4.2089 9.30818C3.81524 9.75373 3.53316 10.2865 3.38594 10.8625C2.98125 12.4219 2.5 15.2719 2.5 20C2.5 24.7281 2.98125 27.5781 3.38594 29.1375C3.53294 29.7138 3.81492 30.2469 4.20859 30.6927C4.60226 31.1385 5.09633 31.4844 5.65 31.7016C10.7812 33.6813 18.8125 33.75 19.8969 33.75H20.1031C21.1875 33.75 29.2234 33.6813 34.35 31.7016C34.9037 31.4844 35.3977 31.1385 35.7914 30.6927C36.1851 30.2469 36.4671 29.7138 36.6141 29.1375C37.0187 27.575 37.5 24.7281 37.5 20C37.5 15.2719 37.0187 12.4219 36.6141 10.8625ZM25.3469 20.5203L17.8469 25.5203C17.7527 25.5831 17.6433 25.6192 17.5302 25.6247C17.4172 25.6302 17.3048 25.6048 17.205 25.5514C17.1052 25.498 17.0218 25.4185 16.9637 25.3214C16.9056 25.2243 16.8749 25.1132 16.875 25V15C16.8749 14.8868 16.9056 14.7758 16.9637 14.6786C17.0218 14.5815 17.1052 14.502 17.205 14.4486C17.3048 14.3952 17.4172 14.3699 17.5302 14.3753C17.6433 14.3808 17.7527 14.4169 17.8469 14.4797L25.3469 19.4797C25.4326 19.5367 25.5029 19.6141 25.5515 19.7049C25.6002 19.7956 25.6256 19.897 25.6256 20C25.6256 20.103 25.6002 20.2044 25.5515 20.2951C25.5029 20.3859 25.4326 20.4633 25.3469 20.5203Z" fill="black"/>
</g>
</svg>
